<svg width="16" height="17" viewBox="0 0 16 17" fill="none" xmlns="http://www.w3.org/2000/svg">
<path d="M0.366696 16.3089C0.418937 16.3612 0.480974 16.4027 0.549261 16.431C0.617547 16.4593 0.690743 16.4739 0.764665 16.4739C0.838586 16.4739 0.911782 16.4593 0.980069 16.431C1.04835 16.4027 1.11039 16.3612 1.16263 16.3089L8.07576 9.3958L14.9917 16.3089C15.0972 16.4145 15.2404 16.4738 15.3897 16.4738C15.5389 16.4738 15.6821 16.4145 15.7876 16.3089C15.8932 16.2034 15.9525 16.0602 15.9525 15.911C15.9525 15.7617 15.8932 15.6185 15.7876 15.513L8.8717 8.59986L15.7848 1.68393C15.8904 1.57838 15.9497 1.43522 15.9497 1.28596C15.9497 1.13669 15.8904 0.993536 15.7848 0.887989C15.6793 0.782441 15.5361 0.723145 15.3869 0.723145C15.2376 0.723145 15.0944 0.782441 14.9889 0.887989L8.07576 7.80393L1.15982 0.890801C1.05221 0.798649 0.913796 0.750495 0.772228 0.755964C0.630661 0.761432 0.49637 0.820119 0.396191 0.920297C0.296013 1.02047 0.237326 1.15477 0.231858 1.29633C0.22639 1.4379 0.274544 1.57632 0.366696 1.68393L7.27982 8.59986L0.366696 15.5158C0.26193 15.6212 0.203125 15.7638 0.203125 15.9124C0.203125 16.061 0.26193 16.2035 0.366696 16.3089Z" fill="#3EA9F8"/>
</svg>
