<svg width="32" height="23" viewBox="0 0 32 23" fill="none" xmlns="http://www.w3.org/2000/svg">
<path d="M25.4845 0.019906V-0.825165H24.8926L24.6903 -0.268891L25.4845 0.019906ZM31.7313 0.019906L32.5677 0.140868L32.7074 -0.825165H31.7313V0.019906ZM28.4186 22.9247V23.7698H29.1503L29.255 23.0457L28.4186 22.9247ZM17.1555 22.9247L16.3613 22.6359L15.949 23.7698H17.1555V22.9247ZM8.35326 0.019906V-0.825165H7.76135L7.55907 -0.268891L8.35326 0.019906ZM14.6947 0.019906L15.531 0.140868L15.6708 -0.825165H14.6947V0.019906ZM11.382 22.9247V23.7698H12.1136L12.2184 23.0457L11.382 22.9247ZM0.0242434 22.9247L-0.769948 22.6359L-1.18226 23.7698H0.0242434V22.9247ZM25.4845 0.864977H31.7313V-0.825165H25.4845V0.864977ZM30.8949 -0.101056L27.5822 22.8037L29.255 23.0457L32.5677 0.140868L30.8949 -0.101056ZM28.4186 22.0796H17.1555V23.7698H28.4186V22.0796ZM17.9497 23.2135L26.2787 0.308702L24.6903 -0.268891L16.3613 22.6359L17.9497 23.2135ZM8.35326 0.864977H14.6947V-0.825165H8.35326V0.864977ZM13.8583 -0.101056L10.5456 22.8037L12.2184 23.0457L15.531 0.140868L13.8583 -0.101056ZM11.382 22.0796H0.0242434V23.7698H11.382V22.0796ZM0.818435 23.2135L9.14745 0.308702L7.55907 -0.268891L-0.769948 22.6359L0.818435 23.2135Z" fill="#3EA9F8"/>
</svg>
