<svg width="19" height="19" viewBox="0 0 19 19" fill="none" xmlns="http://www.w3.org/2000/svg">
<g clip-path="url(#clip0_247_124)">
<path d="M15.0446 11.2196C14.6761 10.8359 14.2316 10.6307 13.7605 10.6307C13.2933 10.6307 12.845 10.8321 12.4613 11.2158L11.2608 12.4124C11.162 12.3593 11.0632 12.3099 10.9683 12.2605C10.8315 12.1921 10.7023 12.1275 10.5922 12.0591C9.46765 11.3449 8.44571 10.4142 7.46556 9.20987C6.99068 8.60962 6.67157 8.10435 6.43983 7.59148C6.75135 7.30656 7.04007 7.01023 7.3212 6.72531C7.42757 6.61893 7.53395 6.50876 7.64032 6.40239C8.43811 5.6046 8.43811 4.57126 7.64032 3.77347L6.60318 2.73633C6.48541 2.61856 6.36385 2.497 6.24988 2.37543C6.02193 2.13989 5.7826 1.89675 5.53566 1.66881C5.16715 1.3041 4.72647 1.11035 4.26299 1.11035C3.7995 1.11035 3.35122 1.3041 2.97132 1.66881C2.96752 1.67261 2.96752 1.67261 2.96372 1.67641L1.67205 2.97947C1.18578 3.46575 0.908448 4.05839 0.847664 4.74602C0.756487 5.85533 1.0832 6.88867 1.33394 7.56489C1.94938 9.22506 2.86874 10.7637 4.24019 12.4124C5.90416 14.3993 7.90625 15.9683 10.1933 17.0738C11.067 17.4879 12.2333 17.978 13.5364 18.0616C13.6162 18.0654 13.6998 18.0692 13.7757 18.0692C14.6533 18.0692 15.3903 17.7539 15.9678 17.127C15.9716 17.1194 15.9792 17.1156 15.983 17.108C16.1805 16.8687 16.4085 16.6522 16.6478 16.4204C16.8112 16.2647 16.9783 16.1013 17.1417 15.9303C17.5178 15.539 17.7153 15.0832 17.7153 14.6159C17.7153 14.1448 17.514 13.6927 17.1303 13.3128L15.0446 11.2196ZM16.4047 15.2199C16.4009 15.2199 16.4009 15.2237 16.4047 15.2199C16.2565 15.3795 16.1045 15.5238 15.9412 15.6834C15.6942 15.9189 15.4435 16.1659 15.208 16.4432C14.8243 16.8535 14.3722 17.0473 13.7795 17.0473C13.7226 17.0473 13.6618 17.0473 13.6048 17.0435C12.4765 16.9713 11.4279 16.5306 10.6415 16.1545C8.4913 15.1136 6.60318 13.6357 5.03419 11.7628C3.73872 10.2014 2.87254 8.75778 2.29889 7.20778C1.94558 6.26183 1.81641 5.52482 1.8734 4.8296C1.91139 4.38511 2.08235 4.0166 2.39767 3.70129L3.69313 2.40582C3.87928 2.23106 4.07683 2.13609 4.27058 2.13609C4.50992 2.13609 4.70367 2.28045 4.82524 2.40202C4.82904 2.40582 4.83284 2.40962 4.83664 2.41342C5.06838 2.62996 5.28872 2.8541 5.52046 3.09344C5.63823 3.21501 5.7598 3.33658 5.88137 3.46195L6.9185 4.49908C7.3212 4.90178 7.3212 5.27408 6.9185 5.67678C6.80833 5.78695 6.70196 5.89712 6.59179 6.00349C6.27267 6.33021 5.96875 6.63413 5.63823 6.93045C5.63063 6.93805 5.62304 6.94185 5.61924 6.94945C5.29252 7.27617 5.35331 7.59528 5.42169 7.81183C5.42549 7.82323 5.42929 7.83462 5.43308 7.84602C5.70282 8.49945 6.08272 9.11489 6.66017 9.8481L6.66397 9.8519C7.7125 11.1436 8.81802 12.1503 10.0375 12.9215C10.1933 13.0203 10.3528 13.1001 10.5048 13.176C10.6415 13.2444 10.7707 13.309 10.8809 13.3774C10.8961 13.385 10.9113 13.3964 10.9265 13.404C11.0556 13.4686 11.1772 13.499 11.3026 13.499C11.6179 13.499 11.8154 13.3014 11.88 13.2368L13.1793 11.9376C13.3085 11.8084 13.5136 11.6526 13.7529 11.6526C13.9885 11.6526 14.1822 11.8008 14.3 11.93C14.3038 11.9338 14.3038 11.9338 14.3076 11.9376L16.4009 14.0308C16.7922 14.4183 16.7922 14.8172 16.4047 15.2199Z" fill="#131313"/>
<path d="M10.5472 4.3509C11.5425 4.51806 12.4467 4.98914 13.1685 5.71095C13.8903 6.43277 14.3576 7.33693 14.5285 8.33228C14.5703 8.58301 14.7869 8.75777 15.0338 8.75777C15.0642 8.75777 15.0908 8.75397 15.1212 8.75017C15.4023 8.70458 15.5885 8.43865 15.5429 8.15752C15.3377 6.95323 14.7679 5.85532 13.8979 4.98534C13.0279 4.11536 11.93 3.54551 10.7257 3.34036C10.4446 3.29477 10.1824 3.48093 10.1331 3.75825C10.0837 4.03558 10.266 4.30531 10.5472 4.3509Z" fill="#131313"/>
<path d="M18.7976 8.00952C18.4595 6.02642 17.5249 4.22189 16.0889 2.78586C14.6529 1.34983 12.8483 0.415268 10.8652 0.0771549C10.5879 0.0277676 10.3258 0.217719 10.2764 0.495047C10.2308 0.776175 10.417 1.03831 10.6981 1.0877C12.4684 1.38782 14.083 2.2274 15.3671 3.50767C16.6512 4.79174 17.4869 6.40633 17.7871 8.17667C17.8289 8.42741 18.0454 8.60216 18.2923 8.60216C18.3227 8.60216 18.3493 8.59836 18.3797 8.59457C18.657 8.55278 18.847 8.28684 18.7976 8.00952Z" fill="#131313"/>
</g>
<defs>
<clipPath id="clip0_247_124">
<rect width="18" height="18" fill="white" transform="translate(0.820312 0.0693359)"/>
</clipPath>
</defs>
</svg>
