<svg width="7" height="7" viewBox="0 0 7 7" fill="none" xmlns="http://www.w3.org/2000/svg">
<path d="M6.51172 3.66113C6.51172 3.71582 6.47852 3.74316 6.41211 3.74316H4.0625V6.09277C4.0625 6.15918 4.03516 6.19238 3.98047 6.19238H3.26562C3.21094 6.19238 3.18359 6.15918 3.18359 6.09277V3.74316H0.833984C0.767578 3.74316 0.734375 3.71582 0.734375 3.66113V2.94629C0.734375 2.8916 0.767578 2.86426 0.833984 2.86426H3.18359V0.514648C3.18359 0.448242 3.21094 0.415039 3.26562 0.415039H3.98047C4.03516 0.415039 4.0625 0.448242 4.0625 0.514648V2.86426H6.41211C6.47852 2.86426 6.51172 2.8916 6.51172 2.94629V3.66113Z" fill="#3EA9F8"/>
</svg>
