<svg width="12" height="12" viewBox="0 0 12 12" fill="none" xmlns="http://www.w3.org/2000/svg">
<path d="M5.19738 1.62627C5.49673 0.704957 6.80014 0.704959 7.09949 1.62627L7.72004 3.5361C7.85391 3.94812 8.23787 4.22708 8.67109 4.22708H10.6792C11.6479 4.22708 12.0507 5.4667 11.267 6.0361L9.64239 7.21644C9.2919 7.47108 9.14525 7.92245 9.27912 8.33447L9.89966 10.2443C10.199 11.1656 9.14453 11.9317 8.36082 11.3623L6.73622 10.182C6.38573 9.92735 5.91114 9.92735 5.56065 10.182L3.93605 11.3623C3.15234 11.9317 2.09786 11.1656 2.39721 10.2443L3.01775 8.33447C3.15163 7.92245 3.00497 7.47108 2.65448 7.21644L1.02988 6.0361C0.246169 5.4667 0.648946 4.22708 1.61767 4.22708H3.62578C4.05901 4.22708 4.44297 3.94812 4.57684 3.5361L5.19738 1.62627Z" fill="#ECD400"/>
</svg>
